<svg xmlns="http://www.w3.org/2000/svg" viewBox="0 0 1000 1000" width="1000" height="1000" role="presentation"><defs><linearGradient id="gdpbtmga" x1="0" y1="0" x2="0.35" y2="1"><stop offset="0" stop-color="#fcfaf8"/><stop offset="1" stop-color="#f5f2ee"/></linearGradient><radialGradient id="gdpbtmgb" cx="0.5" cy="0.5" r="0.5"><stop offset="0" stop-color="#ffffff" stop-opacity="0.95"/><stop offset="0.55" stop-color="#ffffff" stop-opacity="0.34"/><stop offset="1" stop-color="#ffffff" stop-opacity="0"/></radialGradient></defs><rect width="1000" height="1000" fill="url(#gdpbtmga)"/><circle cx="582.71" cy="183.23" r="725.76" fill="url(#gdpbtmgb)"/><rect x="99.49" y="213.58" width="248.32" height="686.94" rx="46.06" fill="#ece7e2" opacity="0.72"/><rect x="375.84" y="184.82" width="248.32" height="715.7" rx="12.31" fill="#ffebe6" opacity="1"/><rect x="652.19" y="82.52" width="248.32" height="818" rx="48.59" fill="#f5f2ee" opacity="0.71"/><rect x="221.35" y="644.83" width="292.93" height="8" fill="#ab331f"/><rect x="46.16" y="46.16" width="907.68" height="907.68" fill="none" stroke="#1b150f" stroke-opacity="0.16" stroke-width="1"/><path d="M46.16 96.16L46.16 46.16L96.16 46.16" fill="none" stroke="#1b150f" stroke-opacity="0.5" stroke-width="1.25"/><path d="M953.84 96.16L953.84 46.16L903.84 46.16" fill="none" stroke="#1b150f" stroke-opacity="0.5" stroke-width="1.25"/><path d="M46.16 903.84L46.16 953.84L96.16 953.84" fill="none" stroke="#1b150f" stroke-opacity="0.5" stroke-width="1.25"/><path d="M953.84 903.84L953.84 953.84L903.84 953.84" fill="none" stroke="#1b150f" stroke-opacity="0.5" stroke-width="1.25"/></svg>